<svg xmlns="http://www.w3.org/2000/svg" xmlns:xlink="http://www.w3.org/1999/xlink" width="500" zoomAndPan="magnify" viewBox="0 0 375 374.999991" height="500" preserveAspectRatio="xMidYMid meet" version="1.0"><defs><g/><clipPath id="e0a1838b33"><path d="M 95 142 L 281 142 L 281 250 L 95 250 Z M 95 142 " clip-rule="nonzero"/></clipPath><clipPath id="62ea46d91c"><path d="M 125.695312 93.382812 L 292.933594 157.894531 L 249.480469 270.550781 L 82.238281 206.042969 Z M 125.695312 93.382812 " clip-rule="nonzero"/></clipPath><clipPath id="6054908d0f"><path d="M 125.695312 93.382812 L 292.933594 157.894531 L 249.480469 270.550781 L 82.238281 206.042969 Z M 125.695312 93.382812 " clip-rule="nonzero"/></clipPath><clipPath id="03bad9ef01"><path d="M 278.855469 183.535156 C 283.011719 169.410156 275.910156 154.136719 262.503906 148.128906 C 252.148438 143.453125 240.691406 145.1875 232.347656 151.464844 C 228.183594 154.570312 222.429688 154.324219 218.386719 151.019531 C 215.273438 148.449219 211.628906 146.285156 207.660156 144.753906 C 196.019531 140.261719 183.546875 141.683594 173.507812 147.609375 C 167.695312 151.066406 160.476562 150.867188 154.644531 147.476562 C 152.109375 145.96875 149.316406 144.738281 146.398438 143.839844 C 127.460938 137.980469 106.9375 147.460938 99.027344 165.605469 C 90.015625 186.214844 100.089844 209.929688 120.855469 217.9375 C 129.453125 221.253906 138.46875 221.3125 146.574219 218.816406 C 154.769531 216.28125 163.53125 219.964844 167.417969 227.617188 C 171.960938 236.511719 179.882812 243.746094 190.273438 247.144531 C 209.371094 253.371094 230.433594 243.871094 238.382812 225.433594 C 239.289062 223.277344 240.015625 221.203125 240.566406 218.984375 C 242.371094 211.550781 248.195312 205.898438 255.734375 204.476562 C 266.28125 202.539062 275.546875 194.871094 278.855469 183.535156 Z M 278.855469 183.535156 " clip-rule="nonzero"/></clipPath><linearGradient x1="-25.78885" gradientTransform="matrix(0.661341, 0.255094, -0.255094, 0.661341, 126.664689, 93.758458)" y1="86.113998" x2="286.827363" gradientUnits="userSpaceOnUse" y2="86.113998" id="d826af7abe"><stop stop-opacity="1" stop-color="rgb(77.598572%, 63.499451%, 72.198486%)" offset="0"/><stop stop-opacity="1" stop-color="rgb(77.598572%, 63.499451%, 72.198486%)" offset="0.0625"/><stop stop-opacity="1" stop-color="rgb(77.758789%, 63.623047%, 72.343445%)" offset="0.09375"/><stop stop-opacity="1" stop-color="rgb(78.030396%, 63.832092%, 72.590637%)" offset="0.101562"/><stop stop-opacity="1" stop-color="rgb(78.253174%, 64.002991%, 72.792053%)" offset="0.109375"/><stop stop-opacity="1" stop-color="rgb(78.474426%, 64.175415%, 72.993469%)" offset="0.117187"/><stop stop-opacity="1" stop-color="rgb(78.697205%, 64.347839%, 73.194885%)" offset="0.125"/><stop stop-opacity="1" stop-color="rgb(78.919983%, 64.518738%, 73.396301%)" offset="0.132812"/><stop stop-opacity="1" stop-color="rgb(79.141235%, 64.691162%, 73.597717%)" offset="0.140625"/><stop stop-opacity="1" stop-color="rgb(79.364014%, 64.862061%, 73.799133%)" offset="0.148438"/><stop stop-opacity="1" stop-color="rgb(79.586792%, 65.034485%, 74.000549%)" offset="0.15625"/><stop stop-opacity="1" stop-color="rgb(79.80957%, 65.205383%, 74.201965%)" offset="0.164062"/><stop stop-opacity="1" stop-color="rgb(80.030823%, 65.377808%, 74.403381%)" offset="0.171875"/><stop stop-opacity="1" stop-color="rgb(80.253601%, 65.548706%, 74.604797%)" offset="0.179687"/><stop stop-opacity="1" stop-color="rgb(80.476379%, 65.72113%, 74.806213%)" offset="0.1875"/><stop stop-opacity="1" stop-color="rgb(80.697632%, 65.892029%, 75.007629%)" offset="0.195312"/><stop stop-opacity="1" stop-color="rgb(80.92041%, 66.064453%, 75.209045%)" offset="0.203125"/><stop stop-opacity="1" stop-color="rgb(81.143188%, 66.235352%, 75.410461%)" offset="0.210938"/><stop stop-opacity="1" stop-color="rgb(81.364441%, 66.407776%, 75.611877%)" offset="0.21875"/><stop stop-opacity="1" stop-color="rgb(81.587219%, 66.578674%, 75.813293%)" offset="0.226562"/><stop stop-opacity="1" stop-color="rgb(81.809998%, 66.751099%, 76.014709%)" offset="0.234375"/><stop stop-opacity="1" stop-color="rgb(82.03125%, 66.921997%, 76.216125%)" offset="0.242187"/><stop stop-opacity="1" stop-color="rgb(82.254028%, 67.094421%, 76.417542%)" offset="0.25"/><stop stop-opacity="1" stop-color="rgb(82.476807%, 67.26532%, 76.618958%)" offset="0.257812"/><stop stop-opacity="1" stop-color="rgb(82.698059%, 67.437744%, 76.820374%)" offset="0.265625"/><stop stop-opacity="1" stop-color="rgb(82.920837%, 67.608643%, 77.02179%)" offset="0.273437"/><stop stop-opacity="1" stop-color="rgb(83.143616%, 67.781067%, 77.223206%)" offset="0.28125"/><stop stop-opacity="1" stop-color="rgb(83.366394%, 67.951965%, 77.424622%)" offset="0.289062"/><stop stop-opacity="1" stop-color="rgb(83.587646%, 68.12439%, 77.626038%)" offset="0.296875"/><stop stop-opacity="1" stop-color="rgb(83.810425%, 68.295288%, 77.827454%)" offset="0.304688"/><stop stop-opacity="1" stop-color="rgb(84.033203%, 68.467712%, 78.02887%)" offset="0.3125"/><stop stop-opacity="1" stop-color="rgb(84.254456%, 68.638611%, 78.231812%)" offset="0.320312"/><stop stop-opacity="1" stop-color="rgb(84.477234%, 68.811035%, 78.433228%)" offset="0.328125"/><stop stop-opacity="1" stop-color="rgb(84.700012%, 68.981934%, 78.634644%)" offset="0.335938"/><stop stop-opacity="1" stop-color="rgb(84.921265%, 69.154358%, 78.83606%)" offset="0.34375"/><stop stop-opacity="1" stop-color="rgb(85.144043%, 69.326782%, 79.037476%)" offset="0.351562"/><stop stop-opacity="1" stop-color="rgb(85.366821%, 69.497681%, 79.238892%)" offset="0.359375"/><stop stop-opacity="1" stop-color="rgb(85.588074%, 69.670105%, 79.440308%)" offset="0.367188"/><stop stop-opacity="1" stop-color="rgb(85.810852%, 69.841003%, 79.641724%)" offset="0.375"/><stop stop-opacity="1" stop-color="rgb(86.03363%, 70.013428%, 79.84314%)" offset="0.382812"/><stop stop-opacity="1" stop-color="rgb(86.254883%, 70.184326%, 80.044556%)" offset="0.390625"/><stop stop-opacity="1" stop-color="rgb(86.477661%, 70.35675%, 80.245972%)" offset="0.398438"/><stop stop-opacity="1" stop-color="rgb(86.700439%, 70.527649%, 80.447388%)" offset="0.40625"/><stop stop-opacity="1" stop-color="rgb(86.921692%, 70.700073%, 80.648804%)" offset="0.414062"/><stop stop-opacity="1" stop-color="rgb(87.14447%, 70.870972%, 80.85022%)" offset="0.421875"/><stop stop-opacity="1" stop-color="rgb(87.367249%, 71.043396%, 81.051636%)" offset="0.429687"/><stop stop-opacity="1" stop-color="rgb(87.590027%, 71.214294%, 81.253052%)" offset="0.4375"/><stop stop-opacity="1" stop-color="rgb(87.811279%, 71.386719%, 81.454468%)" offset="0.445312"/><stop stop-opacity="1" stop-color="rgb(88.034058%, 71.557617%, 81.655884%)" offset="0.453125"/><stop stop-opacity="1" stop-color="rgb(88.256836%, 71.730042%, 81.8573%)" offset="0.460937"/><stop stop-opacity="1" stop-color="rgb(88.478088%, 71.90094%, 82.058716%)" offset="0.46875"/><stop stop-opacity="1" stop-color="rgb(88.700867%, 72.073364%, 82.260132%)" offset="0.476562"/><stop stop-opacity="1" stop-color="rgb(88.923645%, 72.244263%, 82.461548%)" offset="0.484375"/><stop stop-opacity="1" stop-color="rgb(89.144897%, 72.416687%, 82.662964%)" offset="0.492187"/><stop stop-opacity="1" stop-color="rgb(89.367676%, 72.587585%, 82.86438%)" offset="0.5"/><stop stop-opacity="1" stop-color="rgb(89.590454%, 72.76001%, 83.065796%)" offset="0.507812"/><stop stop-opacity="1" stop-color="rgb(89.811707%, 72.930908%, 83.267212%)" offset="0.515625"/><stop stop-opacity="1" stop-color="rgb(90.034485%, 73.103333%, 83.468628%)" offset="0.523437"/><stop stop-opacity="1" stop-color="rgb(90.257263%, 73.274231%, 83.670044%)" offset="0.53125"/><stop stop-opacity="1" stop-color="rgb(90.478516%, 73.446655%, 83.87146%)" offset="0.539062"/><stop stop-opacity="1" stop-color="rgb(90.701294%, 73.617554%, 84.072876%)" offset="0.546875"/><stop stop-opacity="1" stop-color="rgb(90.924072%, 73.789978%, 84.274292%)" offset="0.554688"/><stop stop-opacity="1" stop-color="rgb(91.146851%, 73.960876%, 84.475708%)" offset="0.5625"/><stop stop-opacity="1" stop-color="rgb(91.368103%, 74.133301%, 84.677124%)" offset="0.570312"/><stop stop-opacity="1" stop-color="rgb(91.590881%, 74.305725%, 84.87854%)" offset="0.578125"/><stop stop-opacity="1" stop-color="rgb(91.81366%, 74.476624%, 85.079956%)" offset="0.585937"/><stop stop-opacity="1" stop-color="rgb(92.034912%, 74.649048%, 85.282898%)" offset="0.59375"/><stop stop-opacity="1" stop-color="rgb(92.25769%, 74.819946%, 85.484314%)" offset="0.601562"/><stop stop-opacity="1" stop-color="rgb(92.480469%, 74.992371%, 85.68573%)" offset="0.609375"/><stop stop-opacity="1" stop-color="rgb(92.701721%, 75.163269%, 85.887146%)" offset="0.617187"/><stop stop-opacity="1" stop-color="rgb(92.9245%, 75.335693%, 86.088562%)" offset="0.625"/><stop stop-opacity="1" stop-color="rgb(93.147278%, 75.506592%, 86.289978%)" offset="0.632812"/><stop stop-opacity="1" stop-color="rgb(93.36853%, 75.679016%, 86.491394%)" offset="0.640625"/><stop stop-opacity="1" stop-color="rgb(93.591309%, 75.849915%, 86.69281%)" offset="0.648437"/><stop stop-opacity="1" stop-color="rgb(93.814087%, 76.022339%, 86.894226%)" offset="0.65625"/><stop stop-opacity="1" stop-color="rgb(94.035339%, 76.193237%, 87.095642%)" offset="0.664062"/><stop stop-opacity="1" stop-color="rgb(94.258118%, 76.365662%, 87.297058%)" offset="0.671875"/><stop stop-opacity="1" stop-color="rgb(94.480896%, 76.53656%, 87.498474%)" offset="0.679687"/><stop stop-opacity="1" stop-color="rgb(94.703674%, 76.708984%, 87.69989%)" offset="0.6875"/><stop stop-opacity="1" stop-color="rgb(94.924927%, 76.879883%, 87.901306%)" offset="0.695312"/><stop stop-opacity="1" stop-color="rgb(95.147705%, 77.052307%, 88.102722%)" offset="0.703125"/><stop stop-opacity="1" stop-color="rgb(95.370483%, 77.223206%, 88.304138%)" offset="0.710937"/><stop stop-opacity="1" stop-color="rgb(95.591736%, 77.39563%, 88.505554%)" offset="0.71875"/><stop stop-opacity="1" stop-color="rgb(95.814514%, 77.566528%, 88.70697%)" offset="0.726562"/><stop stop-opacity="1" stop-color="rgb(96.037292%, 77.738953%, 88.908386%)" offset="0.734375"/><stop stop-opacity="1" stop-color="rgb(96.258545%, 77.909851%, 89.109802%)" offset="0.742187"/><stop stop-opacity="1" stop-color="rgb(96.481323%, 78.082275%, 89.311218%)" offset="0.75"/><stop stop-opacity="1" stop-color="rgb(96.704102%, 78.253174%, 89.512634%)" offset="0.757812"/><stop stop-opacity="1" stop-color="rgb(96.925354%, 78.425598%, 89.71405%)" offset="0.765625"/><stop stop-opacity="1" stop-color="rgb(97.148132%, 78.596497%, 89.915466%)" offset="0.773437"/><stop stop-opacity="1" stop-color="rgb(97.370911%, 78.768921%, 90.116882%)" offset="0.78125"/><stop stop-opacity="1" stop-color="rgb(97.592163%, 78.939819%, 90.318298%)" offset="0.789062"/><stop stop-opacity="1" stop-color="rgb(97.814941%, 79.112244%, 90.519714%)" offset="0.796875"/><stop stop-opacity="1" stop-color="rgb(98.03772%, 79.283142%, 90.72113%)" offset="0.804687"/><stop stop-opacity="1" stop-color="rgb(98.260498%, 79.455566%, 90.922546%)" offset="0.8125"/><stop stop-opacity="1" stop-color="rgb(98.48175%, 79.627991%, 91.123962%)" offset="0.820312"/><stop stop-opacity="1" stop-color="rgb(98.704529%, 79.798889%, 91.325378%)" offset="0.828125"/><stop stop-opacity="1" stop-color="rgb(98.927307%, 79.971313%, 91.526794%)" offset="0.835937"/><stop stop-opacity="1" stop-color="rgb(99.14856%, 80.142212%, 91.72821%)" offset="0.84375"/><stop stop-opacity="1" stop-color="rgb(99.371338%, 80.314636%, 91.929626%)" offset="0.851562"/><stop stop-opacity="1" stop-color="rgb(99.594116%, 80.485535%, 92.131042%)" offset="0.859375"/><stop stop-opacity="1" stop-color="rgb(99.85199%, 80.685425%, 92.366028%)" offset="0.875"/><stop stop-opacity="1" stop-color="rgb(100%, 80.799866%, 92.498779%)" offset="1"/></linearGradient><clipPath id="3ad090a77f"><path d="M 151 127 L 169 127 L 169 145 L 151 145 Z M 151 127 " clip-rule="nonzero"/></clipPath><clipPath id="5ad230c5f1"><path d="M 125.695312 93.382812 L 292.933594 157.894531 L 249.480469 270.550781 L 82.238281 206.042969 Z M 125.695312 93.382812 " clip-rule="nonzero"/></clipPath><clipPath id="eedfdb1998"><path d="M 125.695312 93.382812 L 292.933594 157.894531 L 249.480469 270.550781 L 82.238281 206.042969 Z M 125.695312 93.382812 " clip-rule="nonzero"/></clipPath><clipPath id="1a9f3ad070"><path d="M 167.695312 139.441406 C 167.496094 139.960938 167.246094 140.453125 166.953125 140.917969 C 166.65625 141.386719 166.316406 141.820312 165.933594 142.222656 C 165.550781 142.625 165.136719 142.984375 164.683594 143.304688 C 164.230469 143.621094 163.75 143.894531 163.242188 144.117188 C 162.738281 144.34375 162.214844 144.515625 161.671875 144.636719 C 161.132812 144.757812 160.585938 144.824219 160.03125 144.839844 C 159.476562 144.851562 158.929688 144.8125 158.382812 144.71875 C 157.835938 144.625 157.304688 144.476562 156.789062 144.277344 C 156.273438 144.078125 155.78125 143.828125 155.3125 143.535156 C 154.84375 143.238281 154.410156 142.898438 154.007812 142.515625 C 153.609375 142.132812 153.246094 141.714844 152.929688 141.265625 C 152.609375 140.8125 152.339844 140.332031 152.113281 139.824219 C 151.890625 139.320312 151.714844 138.796875 151.59375 138.253906 C 151.472656 137.714844 151.40625 137.167969 151.390625 136.613281 C 151.378906 136.058594 151.417969 135.511719 151.515625 134.964844 C 151.609375 134.417969 151.753906 133.886719 151.953125 133.371094 C 152.15625 132.855469 152.402344 132.363281 152.699219 131.894531 C 152.996094 131.425781 153.332031 130.992188 153.714844 130.589844 C 154.097656 130.1875 154.515625 129.828125 154.96875 129.511719 C 155.421875 129.191406 155.898438 128.917969 156.40625 128.695312 C 156.914062 128.472656 157.4375 128.296875 157.976562 128.175781 C 158.515625 128.054688 159.0625 127.988281 159.617188 127.972656 C 160.171875 127.960938 160.722656 128 161.265625 128.097656 C 161.8125 128.191406 162.34375 128.335938 162.859375 128.535156 C 163.378906 128.734375 163.871094 128.984375 164.335938 129.28125 C 164.804688 129.578125 165.238281 129.914062 165.640625 130.296875 C 166.042969 130.679688 166.402344 131.097656 166.722656 131.550781 C 167.039062 132.003906 167.3125 132.480469 167.535156 132.988281 C 167.761719 133.496094 167.933594 134.019531 168.054688 134.558594 C 168.175781 135.097656 168.242188 135.644531 168.257812 136.199219 C 168.269531 136.753906 168.230469 137.304688 168.136719 137.847656 C 168.042969 138.394531 167.894531 138.925781 167.695312 139.441406 Z M 167.695312 139.441406 " clip-rule="nonzero"/></clipPath><linearGradient x1="49.894573" gradientTransform="matrix(0.661341, 0.255094, -0.255094, 0.661341, 126.664689, 93.758458)" y1="86.113998" x2="80.7054" gradientUnits="userSpaceOnUse" y2="86.113998" id="63ed7fd509"><stop stop-opacity="1" stop-color="rgb(82.141113%, 67.00592%, 76.315308%)" offset="0"/><stop stop-opacity="1" stop-color="rgb(82.315063%, 67.141724%, 76.473999%)" offset="0.125"/><stop stop-opacity="1" stop-color="rgb(82.666016%, 67.411804%, 76.791382%)" offset="0.25"/><stop stop-opacity="1" stop-color="rgb(83.016968%, 67.683411%, 77.108765%)" offset="0.375"/><stop stop-opacity="1" stop-color="rgb(83.36792%, 67.953491%, 77.426147%)" offset="0.5"/><stop stop-opacity="1" stop-color="rgb(83.717346%, 68.225098%, 77.745056%)" offset="0.625"/><stop stop-opacity="1" stop-color="rgb(84.068298%, 68.495178%, 78.062439%)" offset="0.75"/><stop stop-opacity="1" stop-color="rgb(84.41925%, 68.766785%, 78.379822%)" offset="0.875"/><stop stop-opacity="1" stop-color="rgb(84.770203%, 69.036865%, 78.697205%)" offset="1"/></linearGradient><clipPath id="9b3fc04568"><path d="M 205 126 L 216 126 L 216 137 L 205 137 Z M 205 126 " clip-rule="nonzero"/></clipPath><clipPath id="944cd5f80e"><path d="M 125.695312 93.382812 L 292.933594 157.894531 L 249.480469 270.550781 L 82.238281 206.042969 Z M 125.695312 93.382812 " clip-rule="nonzero"/></clipPath><clipPath id="8202b8f1ce"><path d="M 125.695312 93.382812 L 292.933594 157.894531 L 249.480469 270.550781 L 82.238281 206.042969 Z M 125.695312 93.382812 " clip-rule="nonzero"/></clipPath><clipPath id="36520d2591"><path d="M 215.65625 133.476562 C 215.535156 133.785156 215.390625 134.082031 215.210938 134.359375 C 215.035156 134.640625 214.832031 134.898438 214.605469 135.136719 C 214.378906 135.375 214.128906 135.589844 213.859375 135.78125 C 213.585938 135.972656 213.300781 136.132812 213 136.269531 C 212.699219 136.402344 212.386719 136.503906 212.0625 136.578125 C 211.742188 136.648438 211.414062 136.691406 211.082031 136.699219 C 210.753906 136.707031 210.425781 136.683594 210.101562 136.625 C 209.773438 136.570312 209.457031 136.480469 209.148438 136.363281 C 208.839844 136.242188 208.546875 136.097656 208.269531 135.917969 C 207.988281 135.742188 207.730469 135.539062 207.488281 135.3125 C 207.25 135.085938 207.035156 134.835938 206.84375 134.566406 C 206.65625 134.296875 206.492188 134.007812 206.359375 133.707031 C 206.226562 133.40625 206.121094 133.09375 206.050781 132.769531 C 205.976562 132.449219 205.9375 132.121094 205.929688 131.789062 C 205.921875 131.460938 205.945312 131.132812 206 130.808594 C 206.058594 130.480469 206.144531 130.164062 206.265625 129.855469 C 206.382812 129.546875 206.53125 129.253906 206.707031 128.976562 C 206.886719 128.695312 207.085938 128.4375 207.316406 128.195312 C 207.542969 127.957031 207.792969 127.742188 208.0625 127.550781 C 208.332031 127.363281 208.617188 127.199219 208.921875 127.066406 C 209.222656 126.933594 209.535156 126.828125 209.855469 126.757812 C 210.179688 126.683594 210.507812 126.644531 210.835938 126.636719 C 211.167969 126.628906 211.496094 126.652344 211.820312 126.707031 C 212.144531 126.765625 212.464844 126.851562 212.769531 126.972656 C 213.078125 127.089844 213.375 127.238281 213.652344 127.414062 C 213.933594 127.59375 214.191406 127.792969 214.429688 128.023438 C 214.667969 128.25 214.882812 128.5 215.074219 128.769531 C 215.265625 129.039062 215.425781 129.324219 215.5625 129.628906 C 215.695312 129.929688 215.796875 130.242188 215.871094 130.566406 C 215.941406 130.886719 215.984375 131.214844 215.992188 131.542969 C 216 131.875 215.976562 132.203125 215.917969 132.527344 C 215.863281 132.851562 215.773438 133.171875 215.65625 133.476562 Z M 215.65625 133.476562 " clip-rule="nonzero"/></clipPath><linearGradient x1="121.008512" gradientTransform="matrix(0.661341, 0.255094, -0.255094, 0.661341, 126.664689, 93.758458)" y1="86.113998" x2="139.391456" gradientUnits="userSpaceOnUse" y2="86.113998" id="d1046207c6"><stop stop-opacity="1" stop-color="rgb(88.613892%, 72.006226%, 82.180786%)" offset="0"/><stop stop-opacity="1" stop-color="rgb(88.717651%, 72.087097%, 82.275391%)" offset="0.125"/><stop stop-opacity="1" stop-color="rgb(88.926697%, 72.247314%, 82.4646%)" offset="0.25"/><stop stop-opacity="1" stop-color="rgb(89.135742%, 72.409058%, 82.655334%)" offset="0.375"/><stop stop-opacity="1" stop-color="rgb(89.344788%, 72.570801%, 82.844543%)" offset="0.5"/><stop stop-opacity="1" stop-color="rgb(89.553833%, 72.732544%, 83.033752%)" offset="0.625"/><stop stop-opacity="1" stop-color="rgb(89.762878%, 72.894287%, 83.222961%)" offset="0.75"/><stop stop-opacity="1" stop-color="rgb(89.971924%, 73.05603%, 83.41217%)" offset="0.875"/><stop stop-opacity="1" stop-color="rgb(90.180969%, 73.217773%, 83.602905%)" offset="1"/></linearGradient><clipPath id="d9213447a8"><path d="M 250 215 L 267 215 L 267 232 L 250 232 Z M 250 215 " clip-rule="nonzero"/></clipPath><clipPath id="39cb70248c"><path d="M 125.695312 93.382812 L 292.933594 157.894531 L 249.480469 270.550781 L 82.238281 206.042969 Z M 125.695312 93.382812 " clip-rule="nonzero"/></clipPath><clipPath id="d940801fa6"><path d="M 125.695312 93.382812 L 292.933594 157.894531 L 249.480469 270.550781 L 82.238281 206.042969 Z M 125.695312 93.382812 " clip-rule="nonzero"/></clipPath><clipPath id="bb936a12c2"><path d="M 266.308594 226.105469 C 266.121094 226.589844 265.890625 227.054688 265.609375 227.492188 C 265.332031 227.933594 265.011719 228.34375 264.652344 228.71875 C 264.292969 229.097656 263.902344 229.4375 263.472656 229.738281 C 263.046875 230.039062 262.597656 230.292969 262.121094 230.503906 C 261.644531 230.714844 261.152344 230.878906 260.640625 230.992188 C 260.132812 231.105469 259.617188 231.171875 259.097656 231.183594 C 258.578125 231.195312 258.058594 231.15625 257.546875 231.070312 C 257.03125 230.980469 256.53125 230.839844 256.046875 230.652344 C 255.558594 230.464844 255.097656 230.234375 254.65625 229.953125 C 254.214844 229.675781 253.804688 229.355469 253.429688 228.996094 C 253.050781 228.636719 252.710938 228.242188 252.414062 227.816406 C 252.113281 227.390625 251.855469 226.941406 251.644531 226.464844 C 251.433594 225.988281 251.269531 225.496094 251.15625 224.984375 C 251.042969 224.476562 250.980469 223.960938 250.964844 223.441406 C 250.953125 222.921875 250.992188 222.402344 251.082031 221.890625 C 251.171875 221.375 251.308594 220.875 251.496094 220.390625 C 251.683594 219.902344 251.917969 219.441406 252.195312 219 C 252.472656 218.558594 252.792969 218.148438 253.152344 217.773438 C 253.511719 217.394531 253.90625 217.054688 254.332031 216.753906 C 254.757812 216.457031 255.210938 216.199219 255.6875 215.988281 C 256.164062 215.777344 256.65625 215.613281 257.164062 215.5 C 257.671875 215.386719 258.1875 215.324219 258.707031 215.308594 C 259.230469 215.296875 259.746094 215.335938 260.261719 215.425781 C 260.773438 215.511719 261.273438 215.652344 261.761719 215.839844 C 262.246094 216.027344 262.710938 216.261719 263.148438 216.539062 C 263.589844 216.816406 264 217.136719 264.378906 217.496094 C 264.753906 217.855469 265.09375 218.25 265.394531 218.675781 C 265.695312 219.101562 265.949219 219.550781 266.160156 220.027344 C 266.371094 220.503906 266.535156 221 266.648438 221.507812 C 266.761719 222.015625 266.828125 222.53125 266.839844 223.050781 C 266.851562 223.574219 266.8125 224.089844 266.726562 224.605469 C 266.636719 225.117188 266.496094 225.617188 266.308594 226.105469 Z M 266.308594 226.105469 " clip-rule="nonzero"/></clipPath><linearGradient x1="225.300758" gradientTransform="matrix(0.661341, 0.255094, -0.255094, 0.661341, 126.664689, 93.758458)" y1="86.113998" x2="254.299169" gradientUnits="userSpaceOnUse" y2="86.113998" id="c02cec2c58"><stop stop-opacity="1" stop-color="rgb(98.106384%, 79.336548%, 90.783691%)" offset="0"/><stop stop-opacity="1" stop-color="rgb(98.271179%, 79.463196%, 90.933228%)" offset="0.125"/><stop stop-opacity="1" stop-color="rgb(98.600769%, 79.718018%, 91.2323%)" offset="0.25"/><stop stop-opacity="1" stop-color="rgb(98.930359%, 79.972839%, 91.531372%)" offset="0.375"/><stop stop-opacity="1" stop-color="rgb(99.261475%, 80.227661%, 91.830444%)" offset="0.5"/><stop stop-opacity="1" stop-color="rgb(99.591064%, 80.482483%, 92.129517%)" offset="0.625"/><stop stop-opacity="1" stop-color="rgb(99.87793%, 80.705261%, 92.388916%)" offset="0.75"/><stop stop-opacity="1" stop-color="rgb(100%, 80.799866%, 92.498779%)" offset="1"/></linearGradient></defs><g clip-path="url(#e0a1838b33)"><g clip-path="url(#62ea46d91c)"><g clip-path="url(#6054908d0f)"><g clip-path="url(#03bad9ef01)"><path fill="url(#d826af7abe)" d="M 115.011719 73.175781 L 51.269531 238.425781 L 258.015625 318.175781 L 321.757812 152.921875 Z M 115.011719 73.175781 " fill-rule="nonzero"/></g></g></g></g><g clip-path="url(#3ad090a77f)"><g clip-path="url(#5ad230c5f1)"><g clip-path="url(#eedfdb1998)"><g clip-path="url(#1a9f3ad070)"><path fill="url(#63ed7fd509)" d="M 153.566406 122.289062 L 145.707031 142.664062 L 166.082031 150.523438 L 173.941406 130.148438 Z M 153.566406 122.289062 " fill-rule="nonzero"/></g></g></g></g><g clip-path="url(#9b3fc04568)"><g clip-path="url(#944cd5f80e)"><g clip-path="url(#8202b8f1ce)"><g clip-path="url(#36520d2591)"><path fill="url(#d1046207c6)" d="M 207.226562 123.242188 L 202.535156 135.402344 L 214.695312 140.089844 L 219.382812 127.933594 Z M 207.226562 123.242188 " fill-rule="nonzero"/></g></g></g></g><g clip-path="url(#d9213447a8)"><g clip-path="url(#39cb70248c)"><g clip-path="url(#d940801fa6)"><g clip-path="url(#bb936a12c2)"><path fill="url(#c02cec2c58)" d="M 253.011719 209.957031 L 245.617188 229.136719 L 264.792969 236.535156 L 272.191406 217.355469 Z M 253.011719 209.957031 " fill-rule="nonzero"/></g></g></g></g><g fill="#ffffff" fill-opacity="1"><g transform="translate(133.594708, 202.367166)"><g><path d="M 5.234375 -1.15625 C 3.742188 -0.820312 2.578125 -0.878906 1.734375 -1.328125 C 0.898438 -1.773438 0.296875 -2.472656 -0.078125 -3.421875 C -0.453125 -4.378906 -0.6875 -5.488281 -0.78125 -6.75 C -0.875 -8.007812 -0.882812 -9.296875 -0.8125 -10.609375 C -0.738281 -11.929688 -0.6875 -13.179688 -0.65625 -14.359375 C -0.625 -15.546875 -0.695312 -16.535156 -0.875 -17.328125 C -1.039062 -18.085938 -1.34375 -19.0625 -1.78125 -20.25 C -2.226562 -21.4375 -2.707031 -22.734375 -3.21875 -24.140625 C -3.726562 -25.554688 -4.195312 -26.96875 -4.625 -28.375 C -5.0625 -29.78125 -5.363281 -31.085938 -5.53125 -32.296875 C -5.707031 -33.515625 -5.664062 -34.523438 -5.40625 -35.328125 C -5.15625 -36.140625 -4.601562 -36.640625 -3.75 -36.828125 C -2.988281 -36.992188 -2.3125 -37.050781 -1.71875 -37 C -1.125 -36.957031 -0.800781 -36.960938 -0.75 -37.015625 C 0.21875 -37.578125 1.253906 -37.976562 2.359375 -38.21875 C 3.910156 -38.5625 5.4375 -38.535156 6.9375 -38.140625 C 8.4375 -37.742188 9.738281 -37.0625 10.84375 -36.09375 C 11.957031 -35.132812 12.769531 -33.957031 13.28125 -32.5625 C 13.789062 -31.175781 13.832031 -29.644531 13.40625 -27.96875 C 13.09375 -26.726562 12.707031 -25.78125 12.25 -25.125 C 11.800781 -24.46875 11.453125 -24.003906 11.203125 -23.734375 C 10.953125 -23.460938 10.960938 -23.285156 11.234375 -23.203125 C 11.398438 -23.160156 11.851562 -23.046875 12.59375 -22.859375 C 13.332031 -22.679688 14.203125 -22.40625 15.203125 -22.03125 C 16.210938 -21.65625 17.21875 -21.101562 18.21875 -20.375 C 19.226562 -19.65625 20.125 -18.734375 20.90625 -17.609375 C 21.6875 -16.484375 22.179688 -15.097656 22.390625 -13.453125 C 22.578125 -12.066406 22.460938 -10.675781 22.046875 -9.28125 C 21.640625 -7.882812 20.875 -6.648438 19.75 -5.578125 C 18.625 -4.503906 17.097656 -3.753906 15.171875 -3.328125 C 13.785156 -3.023438 12.273438 -2.925781 10.640625 -3.03125 C 10.035156 -2.582031 9.273438 -2.21875 8.359375 -1.9375 C 7.441406 -1.664062 6.398438 -1.40625 5.234375 -1.15625 Z M 7 -19.609375 C 6.445312 -19.265625 6.144531 -18.664062 6.09375 -17.8125 C 6.050781 -16.957031 6.179688 -16.0625 6.484375 -15.125 C 6.796875 -14.195312 7.21875 -13.429688 7.75 -12.828125 C 8.289062 -12.222656 8.867188 -11.988281 9.484375 -12.125 C 9.691406 -12.164062 9.890625 -12.265625 10.078125 -12.421875 C 10.773438 -12.890625 11.097656 -13.546875 11.046875 -14.390625 C 11.003906 -15.234375 10.742188 -16.082031 10.265625 -16.9375 C 9.796875 -17.789062 9.265625 -18.488281 8.671875 -19.03125 C 8.085938 -19.570312 7.585938 -19.796875 7.171875 -19.703125 C 7.140625 -19.703125 7.109375 -19.6875 7.078125 -19.65625 C 7.054688 -19.632812 7.03125 -19.617188 7 -19.609375 Z M 2.484375 -33.4375 C 2.234375 -33.257812 2.128906 -32.804688 2.171875 -32.078125 C 2.222656 -31.347656 2.382812 -30.550781 2.65625 -29.6875 C 2.9375 -28.832031 3.3125 -28.125 3.78125 -27.5625 C 4.257812 -27 4.8125 -26.785156 5.4375 -26.921875 C 5.632812 -26.960938 5.832031 -27.03125 6.03125 -27.125 C 6.226562 -27.21875 6.394531 -27.375 6.53125 -27.59375 C 7.09375 -28.46875 7.3125 -29.28125 7.1875 -30.03125 C 7.0625 -30.78125 6.726562 -31.441406 6.1875 -32.015625 C 5.644531 -32.585938 5.050781 -33.007812 4.40625 -33.28125 C 3.769531 -33.550781 3.25 -33.644531 2.84375 -33.5625 C 2.675781 -33.519531 2.554688 -33.476562 2.484375 -33.4375 Z M 2.484375 -33.4375 "/></g></g></g><g fill="#ffffff" fill-opacity="1"><g transform="translate(155.644423, 197.242071)"><g><path d="M 1.078125 -8.640625 C 0.910156 -10.628906 0.992188 -12.519531 1.328125 -14.3125 C 1.660156 -16.101562 2.046875 -17.828125 2.484375 -19.484375 C 2.929688 -21.148438 3.296875 -22.753906 3.578125 -24.296875 C 3.867188 -25.835938 3.90625 -27.351562 3.6875 -28.84375 C 3.5 -30.269531 3.523438 -31.570312 3.765625 -32.75 C 4.015625 -33.925781 4.484375 -34.851562 5.171875 -35.53125 C 5.859375 -36.207031 6.710938 -36.523438 7.734375 -36.484375 C 8.117188 -36.460938 8.5625 -36.363281 9.0625 -36.1875 C 9.570312 -36.007812 10.035156 -35.625 10.453125 -35.03125 C 10.867188 -34.445312 11.117188 -33.550781 11.203125 -32.34375 C 11.296875 -31.238281 11.316406 -29.988281 11.265625 -28.59375 C 11.222656 -27.195312 11.1875 -25.789062 11.15625 -24.375 C 11.132812 -22.96875 11.160156 -21.660156 11.234375 -20.453125 C 11.304688 -19.253906 11.484375 -18.273438 11.765625 -17.515625 C 12.046875 -16.753906 12.484375 -16.363281 13.078125 -16.34375 C 13.859375 -16.300781 14.457031 -16.773438 14.875 -17.765625 C 15.289062 -18.753906 15.59375 -20.03125 15.78125 -21.59375 C 15.976562 -23.15625 16.097656 -24.8125 16.140625 -26.5625 C 16.179688 -28.3125 16.222656 -29.9375 16.265625 -31.4375 C 16.296875 -32.175781 16.414062 -32.890625 16.625 -33.578125 C 16.832031 -34.273438 17.203125 -34.851562 17.734375 -35.3125 C 18.265625 -35.769531 18.988281 -35.976562 19.90625 -35.9375 C 20.863281 -35.894531 21.582031 -35.476562 22.0625 -34.6875 C 22.539062 -33.90625 22.851562 -32.960938 23 -31.859375 C 23.144531 -30.765625 23.21875 -29.679688 23.21875 -28.609375 C 23.226562 -27.546875 23.234375 -26.695312 23.234375 -26.0625 C 23.304688 -23.539062 23.484375 -21.160156 23.765625 -18.921875 C 24.054688 -16.691406 24.203125 -14.503906 24.203125 -12.359375 C 24.210938 -10.222656 23.851562 -8.023438 23.125 -5.765625 C 22.59375 -4.128906 21.890625 -2.867188 21.015625 -1.984375 C 20.140625 -1.097656 19.207031 -0.460938 18.21875 -0.078125 C 17.238281 0.296875 16.273438 0.503906 15.328125 0.546875 C 14.390625 0.597656 13.601562 0.609375 12.96875 0.578125 L 10.265625 0.453125 C 9.066406 0.398438 7.785156 0.0703125 6.421875 -0.53125 C 5.054688 -1.144531 3.867188 -2.109375 2.859375 -3.421875 C 1.859375 -4.742188 1.265625 -6.484375 1.078125 -8.640625 Z M 1.078125 -8.640625 "/></g></g></g><g fill="#ffffff" fill-opacity="1"><g transform="translate(180.790785, 204.40609)"><g><path d="M 3.109375 -5.921875 C 2.472656 -7.953125 2.066406 -10.132812 1.890625 -12.46875 C 1.710938 -14.8125 1.753906 -17.148438 2.015625 -19.484375 C 2.273438 -21.828125 2.722656 -24.046875 3.359375 -26.140625 C 4.003906 -28.234375 4.800781 -30.039062 5.75 -31.5625 C 6.519531 -32.78125 7.625 -33.828125 9.0625 -34.703125 C 10.507812 -35.585938 11.957031 -35.976562 13.40625 -35.875 C 13.757812 -35.84375 13.988281 -35.820312 14.09375 -35.8125 C 14.195312 -35.8125 14.289062 -35.804688 14.375 -35.796875 C 14.46875 -35.796875 14.691406 -35.78125 15.046875 -35.75 C 16.703125 -35.625 18.117188 -35.265625 19.296875 -34.671875 C 20.484375 -34.078125 21.34375 -33.335938 21.875 -32.453125 C 22.40625 -31.578125 22.492188 -30.675781 22.140625 -29.75 C 21.921875 -29.175781 21.46875 -28.816406 20.78125 -28.671875 C 20.101562 -28.523438 19.359375 -28.484375 18.546875 -28.546875 C 17.984375 -28.585938 17.394531 -28.644531 16.78125 -28.71875 C 16.175781 -28.800781 15.628906 -28.859375 15.140625 -28.890625 C 14.679688 -28.929688 14.296875 -28.925781 13.984375 -28.875 C 13.679688 -28.832031 13.519531 -28.671875 13.5 -28.390625 C 13.425781 -27.960938 13.671875 -27.648438 14.234375 -27.453125 C 14.804688 -27.253906 15.507812 -27.085938 16.34375 -26.953125 C 17.1875 -26.816406 18.023438 -26.617188 18.859375 -26.359375 C 19.703125 -26.109375 20.390625 -25.703125 20.921875 -25.140625 C 21.460938 -24.578125 21.695312 -23.773438 21.625 -22.734375 C 21.539062 -21.671875 21.195312 -20.96875 20.59375 -20.625 C 19.988281 -20.28125 19.269531 -20.109375 18.4375 -20.109375 C 17.601562 -20.117188 16.765625 -20.164062 15.921875 -20.25 C 15.078125 -20.332031 14.351562 -20.289062 13.75 -20.125 C 13.15625 -19.957031 12.832031 -19.5 12.78125 -18.75 C 12.6875 -17.59375 13.023438 -16.601562 13.796875 -15.78125 C 14.578125 -14.96875 15.722656 -14.503906 17.234375 -14.390625 C 17.378906 -14.378906 17.507812 -14.375 17.625 -14.375 C 17.75 -14.382812 17.882812 -14.382812 18.03125 -14.375 C 18.101562 -14.375 18.179688 -14.367188 18.265625 -14.359375 C 18.359375 -14.359375 18.457031 -14.351562 18.5625 -14.34375 C 19.800781 -14.25 20.800781 -13.789062 21.5625 -12.96875 C 22.332031 -12.15625 22.867188 -11.144531 23.171875 -9.9375 C 23.472656 -8.726562 23.53125 -7.457031 23.34375 -6.125 C 23.15625 -4.789062 22.710938 -3.554688 22.015625 -2.421875 C 21.328125 -1.285156 20.363281 -0.382812 19.125 0.28125 C 17.894531 0.957031 16.378906 1.226562 14.578125 1.09375 L 10.03125 0.75 C 9.21875 0.6875 8.347656 0.351562 7.421875 -0.25 C 6.503906 -0.851562 5.65625 -1.640625 4.875 -2.609375 C 4.09375 -3.585938 3.503906 -4.691406 3.109375 -5.921875 Z M 3.109375 -5.921875 "/></g></g></g><g fill="#ffffff" fill-opacity="1"><g transform="translate(206.470675, 206.449594)"><g><path d="M 7.46875 -1 C 6.445312 -0.863281 5.347656 -0.925781 4.171875 -1.1875 C 2.992188 -1.457031 1.976562 -1.988281 1.125 -2.78125 C 0.269531 -3.582031 -0.195312 -4.710938 -0.28125 -6.171875 C -0.351562 -7.753906 -0.300781 -9.367188 -0.125 -11.015625 C 0.0390625 -12.660156 0.195312 -14.507812 0.34375 -16.5625 C 0.5 -18.613281 0.476562 -21.019531 0.28125 -23.78125 C 0.195312 -25.332031 0.0234375 -26.875 -0.234375 -28.40625 C -0.503906 -29.945312 -0.707031 -31.359375 -0.84375 -32.640625 C -0.976562 -33.921875 -0.914062 -34.976562 -0.65625 -35.8125 C -0.394531 -36.65625 0.210938 -37.140625 1.171875 -37.265625 C 2.460938 -37.429688 3.769531 -37.253906 5.09375 -36.734375 C 6.425781 -36.222656 7.707031 -35.515625 8.9375 -34.609375 C 10.164062 -33.703125 11.28125 -32.769531 12.28125 -31.8125 C 13.289062 -30.863281 14.117188 -30.039062 14.765625 -29.34375 C 15.410156 -28.644531 15.816406 -28.21875 15.984375 -28.0625 C 16.515625 -27.601562 16.878906 -27.382812 17.078125 -27.40625 C 17.398438 -27.457031 17.535156 -28.128906 17.484375 -29.421875 C 17.429688 -30.722656 17.175781 -33.085938 16.71875 -36.515625 C 16.46875 -38.367188 17.21875 -39.410156 18.96875 -39.640625 C 19.25 -39.679688 19.613281 -39.675781 20.0625 -39.625 C 20.519531 -39.582031 20.96875 -39.394531 21.40625 -39.0625 C 21.851562 -38.726562 22.148438 -38.125 22.296875 -37.25 C 23.054688 -33.4375 23.789062 -30.207031 24.5 -27.5625 C 25.207031 -24.914062 25.859375 -22.601562 26.453125 -20.625 C 27.054688 -18.65625 27.578125 -16.820312 28.015625 -15.125 C 28.460938 -13.4375 28.78125 -11.632812 28.96875 -9.71875 C 29.132812 -8.125 28.804688 -6.703125 27.984375 -5.453125 C 27.160156 -4.203125 25.78125 -3.445312 23.84375 -3.1875 C 21.394531 -2.863281 19.503906 -3.289062 18.171875 -4.46875 C 16.835938 -5.644531 16.101562 -7.257812 15.96875 -9.3125 C 15.820312 -11.75 15.347656 -14.035156 14.546875 -16.171875 C 13.742188 -18.304688 12.820312 -20.1875 11.78125 -21.8125 C 10.75 -23.4375 9.78125 -24.695312 8.875 -25.59375 C 7.976562 -26.488281 7.351562 -26.910156 7 -26.859375 C 6.539062 -26.765625 6.289062 -26.460938 6.25 -25.953125 C 6.21875 -25.453125 6.304688 -24.863281 6.515625 -24.1875 C 6.734375 -23.507812 6.972656 -22.847656 7.234375 -22.203125 C 7.503906 -21.554688 7.703125 -21.0625 7.828125 -20.71875 C 8.304688 -19.46875 8.894531 -18.21875 9.59375 -16.96875 C 10.300781 -15.726562 11.003906 -14.503906 11.703125 -13.296875 C 12.398438 -12.097656 12.960938 -10.882812 13.390625 -9.65625 C 13.828125 -8.4375 14 -7.210938 13.90625 -5.984375 C 13.882812 -5.367188 13.703125 -4.710938 13.359375 -4.015625 C 13.023438 -3.328125 12.40625 -2.710938 11.5 -2.171875 C 10.59375 -1.628906 9.25 -1.238281 7.46875 -1 Z M 7.46875 -1 "/></g></g></g><g fill="#ffffff" fill-opacity="1"><g transform="translate(239.025403, 201.534968)"><g><path d="M -5.75 -17.484375 C -7.0625 -21.109375 -7.738281 -24.367188 -7.78125 -27.265625 C -7.832031 -30.160156 -7.300781 -32.582031 -6.1875 -34.53125 C -5.070312 -36.488281 -3.421875 -37.867188 -1.234375 -38.671875 C 0.492188 -39.285156 2.191406 -39.414062 3.859375 -39.0625 C 5.523438 -38.707031 7.101562 -37.984375 8.59375 -36.890625 C 10.082031 -35.796875 11.457031 -34.421875 12.71875 -32.765625 C 13.988281 -31.117188 15.066406 -29.332031 15.953125 -27.40625 C 16.984375 -25.175781 17.726562 -22.859375 18.1875 -20.453125 C 18.65625 -18.054688 18.742188 -15.757812 18.453125 -13.5625 C 18.171875 -11.375 17.445312 -9.441406 16.28125 -7.765625 C 15.125 -6.085938 13.453125 -4.859375 11.265625 -4.078125 C 9.671875 -3.492188 8.035156 -3.472656 6.359375 -4.015625 C 4.679688 -4.554688 3.054688 -5.488281 1.484375 -6.8125 C -0.0859375 -8.144531 -1.5 -9.738281 -2.75 -11.59375 C -4.007812 -13.457031 -5.007812 -15.421875 -5.75 -17.484375 Z M 0.796875 -33.046875 C 0.234375 -32.835938 -0.148438 -32.34375 -0.359375 -31.5625 C -0.566406 -30.789062 -0.617188 -29.867188 -0.515625 -28.796875 C -0.410156 -27.734375 -0.175781 -26.640625 0.1875 -25.515625 C 0.5625 -24.390625 1.039062 -23.378906 1.625 -22.484375 C 2.21875 -21.597656 2.894531 -20.941406 3.65625 -20.515625 C 4.425781 -20.085938 5.265625 -20.039062 6.171875 -20.375 C 6.960938 -20.65625 7.453125 -21.179688 7.640625 -21.953125 C 7.835938 -22.722656 7.820312 -23.617188 7.59375 -24.640625 C 7.375 -25.671875 7.003906 -26.71875 6.484375 -27.78125 C 5.972656 -28.851562 5.378906 -29.820312 4.703125 -30.6875 C 4.035156 -31.550781 3.359375 -32.207031 2.671875 -32.65625 C 1.984375 -33.113281 1.359375 -33.242188 0.796875 -33.046875 Z M 0.796875 -33.046875 "/></g></g></g><g fill="#fcfdf2" fill-opacity="1"><g transform="translate(180.098069, 225.826108)"><g><path d="M 5.296875 -1.828125 L 4.390625 -2.546875 L 1.4375 1.15625 L 0.734375 0.578125 L 3.6875 -3.125 L 3.140625 -3.5625 L 3.609375 -4.140625 L 4.15625 -3.703125 L 4.40625 -4.015625 C 4.789062 -4.492188 5.191406 -4.738281 5.609375 -4.75 C 6.035156 -4.769531 6.519531 -4.566406 7.0625 -4.140625 L 6.59375 -3.546875 C 6.28125 -3.785156 6.007812 -3.894531 5.78125 -3.875 C 5.550781 -3.851562 5.328125 -3.707031 5.109375 -3.4375 L 4.859375 -3.125 L 5.765625 -2.40625 Z M 5.296875 -1.828125 "/></g></g></g><g fill="#fcfdf2" fill-opacity="1"><g transform="translate(183.062503, 228.172344)"><g><path d="M 3.828125 -3.046875 C 4.128906 -3.222656 4.453125 -3.304688 4.796875 -3.296875 C 5.140625 -3.296875 5.492188 -3.1875 5.859375 -2.96875 L 5.375 -2.15625 L 5.15625 -2.28125 C 4.289062 -2.8125 3.570312 -2.609375 3 -1.671875 L 1.4375 0.875 L 0.65625 0.40625 L 3.515625 -4.28125 L 4.296875 -3.8125 Z M 3.828125 -3.046875 "/></g></g></g><g fill="#fcfdf2" fill-opacity="1"><g transform="translate(186.785217, 230.520148)"><g><path d="M 2.90625 1.234375 C 2.4375 1.046875 2.046875 0.765625 1.734375 0.390625 C 1.429688 0.0234375 1.25 -0.398438 1.1875 -0.890625 C 1.125 -1.378906 1.191406 -1.882812 1.390625 -2.40625 C 1.597656 -2.9375 1.890625 -3.351562 2.265625 -3.65625 C 2.640625 -3.96875 3.066406 -4.15625 3.546875 -4.21875 C 4.023438 -4.28125 4.503906 -4.21875 4.984375 -4.03125 C 5.472656 -3.84375 5.867188 -3.566406 6.171875 -3.203125 C 6.472656 -2.835938 6.660156 -2.410156 6.734375 -1.921875 C 6.816406 -1.441406 6.753906 -0.9375 6.546875 -0.40625 C 6.347656 0.113281 6.054688 0.53125 5.671875 0.84375 C 5.285156 1.15625 4.847656 1.34375 4.359375 1.40625 C 3.878906 1.476562 3.394531 1.421875 2.90625 1.234375 Z M 3.1875 0.484375 C 3.5 0.597656 3.816406 0.632812 4.140625 0.59375 C 4.472656 0.550781 4.773438 0.414062 5.046875 0.1875 C 5.316406 -0.03125 5.53125 -0.34375 5.6875 -0.75 C 5.851562 -1.15625 5.910156 -1.53125 5.859375 -1.875 C 5.804688 -2.226562 5.675781 -2.523438 5.46875 -2.765625 C 5.257812 -3.003906 5 -3.179688 4.6875 -3.296875 C 4.375 -3.421875 4.0625 -3.460938 3.75 -3.421875 C 3.445312 -3.378906 3.160156 -3.242188 2.890625 -3.015625 C 2.628906 -2.796875 2.414062 -2.484375 2.25 -2.078125 C 2.09375 -1.660156 2.035156 -1.273438 2.078125 -0.921875 C 2.117188 -0.578125 2.238281 -0.285156 2.4375 -0.046875 C 2.644531 0.191406 2.894531 0.367188 3.1875 0.484375 Z M 3.1875 0.484375 "/></g></g></g><g fill="#fcfdf2" fill-opacity="1"><g transform="translate(193.542136, 233.031754)"><g><path d="M 4.203125 -5.03125 C 4.859375 -4.9375 5.363281 -4.660156 5.71875 -4.203125 C 6.070312 -3.742188 6.191406 -3.140625 6.078125 -2.390625 L 5.625 0.8125 L 4.734375 0.671875 L 5.171875 -2.390625 C 5.253906 -2.929688 5.175781 -3.363281 4.9375 -3.6875 C 4.707031 -4.019531 4.363281 -4.21875 3.90625 -4.28125 C 3.425781 -4.351562 3.023438 -4.257812 2.703125 -4 C 2.378906 -3.738281 2.179688 -3.328125 2.109375 -2.765625 L 1.671875 0.234375 L 0.765625 0.109375 L 1.546875 -5.3125 L 2.453125 -5.1875 L 2.34375 -4.421875 C 2.5625 -4.671875 2.832031 -4.847656 3.15625 -4.953125 C 3.476562 -5.054688 3.828125 -5.082031 4.203125 -5.03125 Z M 4.203125 -5.03125 "/></g></g></g><g fill="#fcfdf2" fill-opacity="1"><g transform="translate(200.538931, 233.851841)"><g><path d="M 1.703125 -4.796875 L 1.828125 -1.5625 C 1.828125 -1.289062 1.882812 -1.101562 2 -1 C 2.125 -0.894531 2.328125 -0.847656 2.609375 -0.859375 L 3.28125 -0.890625 L 3.3125 -0.125 L 2.484375 -0.09375 C 1.984375 -0.0703125 1.597656 -0.171875 1.328125 -0.390625 C 1.066406 -0.617188 0.929688 -1 0.921875 -1.53125 L 0.796875 -4.765625 L 0.09375 -4.75 L 0.0625 -5.5 L 0.765625 -5.515625 L 0.71875 -6.890625 L 1.625 -6.921875 L 1.671875 -5.546875 L 3.109375 -5.609375 L 3.140625 -4.859375 Z M 1.703125 -4.796875 "/></g></g></g><g fill="#fcfdf2" fill-opacity="1"><g transform="translate(204.831257, 233.752364)"><g><path d="M 5.015625 -4.09375 C 5.054688 -3.914062 5.085938 -3.738281 5.109375 -3.5625 L 0.828125 -2.640625 C 0.972656 -2.117188 1.242188 -1.742188 1.640625 -1.515625 C 2.035156 -1.285156 2.46875 -1.222656 2.9375 -1.328125 C 3.320312 -1.410156 3.617188 -1.566406 3.828125 -1.796875 C 4.046875 -2.023438 4.175781 -2.304688 4.21875 -2.640625 L 5.171875 -2.84375 C 5.140625 -2.300781 4.941406 -1.816406 4.578125 -1.390625 C 4.222656 -0.972656 3.726562 -0.695312 3.09375 -0.5625 C 2.582031 -0.457031 2.097656 -0.472656 1.640625 -0.609375 C 1.191406 -0.753906 0.804688 -1.015625 0.484375 -1.390625 C 0.171875 -1.765625 -0.0390625 -2.226562 -0.15625 -2.78125 C -0.269531 -3.332031 -0.257812 -3.835938 -0.125 -4.296875 C 0 -4.765625 0.238281 -5.148438 0.59375 -5.453125 C 0.957031 -5.765625 1.398438 -5.976562 1.921875 -6.09375 C 2.421875 -6.207031 2.890625 -6.195312 3.328125 -6.0625 C 3.773438 -5.925781 4.140625 -5.6875 4.421875 -5.34375 C 4.710938 -5 4.910156 -4.582031 5.015625 -4.09375 Z M 4.0625 -4.09375 C 3.988281 -4.425781 3.851562 -4.695312 3.65625 -4.90625 C 3.457031 -5.125 3.210938 -5.265625 2.921875 -5.328125 C 2.640625 -5.398438 2.34375 -5.398438 2.03125 -5.328125 C 1.582031 -5.234375 1.226562 -5.007812 0.96875 -4.65625 C 0.707031 -4.300781 0.613281 -3.867188 0.6875 -3.359375 Z M 4.0625 -4.09375 "/></g></g></g><g fill="#fcfdf2" fill-opacity="1"><g transform="translate(211.657933, 232.211479)"><g><path d="M 0.78125 -6.5 C 1.382812 -6.78125 1.957031 -6.828125 2.5 -6.640625 C 3.039062 -6.453125 3.472656 -6.015625 3.796875 -5.328125 L 5.15625 -2.390625 L 4.34375 -2.015625 L 3.046875 -4.828125 C 2.816406 -5.328125 2.515625 -5.648438 2.140625 -5.796875 C 1.765625 -5.941406 1.363281 -5.914062 0.9375 -5.71875 C 0.5 -5.519531 0.210938 -5.222656 0.078125 -4.828125 C -0.046875 -4.429688 0.0078125 -3.972656 0.25 -3.453125 L 1.53125 -0.703125 L 0.6875 -0.328125 L -1.609375 -5.3125 L -0.765625 -5.6875 L -0.4375 -4.96875 C -0.40625 -5.3125 -0.28125 -5.613281 -0.0625 -5.875 C 0.15625 -6.132812 0.4375 -6.34375 0.78125 -6.5 Z M 0.78125 -6.5 "/></g></g></g><g fill="#fcfdf2" fill-opacity="1"><g transform="translate(218.188079, 229.105163)"><g><path d="M -1.359375 -2.4375 C -1.703125 -2.875 -1.914062 -3.328125 -2 -3.796875 C -2.09375 -4.273438 -2.050781 -4.726562 -1.875 -5.15625 C -1.707031 -5.582031 -1.429688 -5.953125 -1.046875 -6.265625 C -0.703125 -6.523438 -0.328125 -6.691406 0.078125 -6.765625 C 0.484375 -6.835938 0.859375 -6.800781 1.203125 -6.65625 L -0.59375 -8.953125 L 0.125 -9.53125 L 4.703125 -3.703125 L 3.984375 -3.125 L 3.34375 -3.9375 C 3.394531 -3.582031 3.347656 -3.207031 3.203125 -2.8125 C 3.066406 -2.425781 2.816406 -2.085938 2.453125 -1.796875 C 2.066406 -1.492188 1.640625 -1.3125 1.171875 -1.25 C 0.710938 -1.195312 0.257812 -1.269531 -0.1875 -1.46875 C -0.632812 -1.675781 -1.023438 -2 -1.359375 -2.4375 Z M 2.28125 -5.28125 C 2.03125 -5.613281 1.742188 -5.847656 1.421875 -5.984375 C 1.097656 -6.117188 0.773438 -6.164062 0.453125 -6.125 C 0.128906 -6.082031 -0.164062 -5.957031 -0.4375 -5.75 C -0.695312 -5.539062 -0.882812 -5.285156 -1 -4.984375 C -1.125 -4.679688 -1.15625 -4.359375 -1.09375 -4.015625 C -1.039062 -3.671875 -0.890625 -3.335938 -0.640625 -3.015625 C -0.378906 -2.679688 -0.0859375 -2.445312 0.234375 -2.3125 C 0.554688 -2.175781 0.878906 -2.125 1.203125 -2.15625 C 1.523438 -2.195312 1.816406 -2.320312 2.078125 -2.53125 C 2.347656 -2.738281 2.539062 -2.992188 2.65625 -3.296875 C 2.78125 -3.609375 2.8125 -3.9375 2.75 -4.28125 C 2.695312 -4.625 2.539062 -4.957031 2.28125 -5.28125 Z M 2.28125 -5.28125 "/></g></g></g></svg>